<?xml version="1.0" encoding="utf-8"?>
<!-- Generator: Adobe Illustrator 17.1.0, SVG Export Plug-In . SVG Version: 6.00 Build 0)  -->
<!DOCTYPE svg PUBLIC "-//W3C//DTD SVG 1.1//EN" "http://www.w3.org/Graphics/SVG/1.1/DTD/svg11.dtd">
<svg version="1.1" id="white_1_" xmlns="http://www.w3.org/2000/svg" xmlns:xlink="http://www.w3.org/1999/xlink" x="0px" y="0px"
	 viewBox="0 0 478 81" enable-background="new 0 0 478 81" xml:space="preserve">
<g id="sush.i">
	<g>
		<path fill="#F3F3F3" d="M15.4,37.2c0-3.4,3.5-5.2,8.5-5.2c3.1,0,7.2,1.3,7.2,4v2.8h12.6v-6c0-9.3-12.4-11.9-20.1-11.9
			C11.7,21,1.3,26.3,1.3,37.7c0,18.5,30.2,18.4,30.2,26.5c0,3.8-3.4,5.6-7.8,5.6c-9.8,0-17.1-8.4-17.1-8.4L0,70.8
			C0,70.8,8.1,81,23.8,81c12.5,0,22-6.7,22-17.5C45.8,44.4,15.4,46.2,15.4,37.2z M133.1,65.1V22h-14.2v26.4c0,10.3-5.7,19.4-16,19.4
			c-7,0-8.8-4.7-8.8-11.8V29.6c0-5.2-2.2-7.6-7.5-7.6H73v12.2h4.5c1.6,0,2.5,0.8,2.5,2.5v22.4c0,15.7,7.5,21.9,19.7,21.9
			c9.8,0,17-6,19.7-12h0.2c0,0-0.1,1.2-0.1,2.6v1.6c0,4.1,2.6,6.4,7.5,6.4H140V67.6h-4.5C134,67.6,133.1,66.6,133.1,65.1z
			 M182.4,37.2c0-3.4,3.5-5.2,8.6-5.2c3.2,0,7.2,1.3,7.2,4v2.8h12.6v-6c0-9.3-12.4-11.9-20.2-11.9c-12,0-22.3,5.3-22.3,16.7
			c0,18.5,30.3,18.4,30.3,26.5c0,3.8-3.4,5.6-7.8,5.6c-9.8,0-17.1-8.4-17.1-8.4l-6.8,9.3c0,0,8.1,10.2,23.9,10.2
			c12.5,0,22.1-6.7,22.1-17.5C213,44.4,182.4,46.2,182.4,37.2z M301,65.5V43c0-15.2-7.2-21.9-20-21.9c-9.9,0-17,5.9-19.7,11.4h-0.2
			c0,0,0.2-2,0.2-4.8V7.5c0-5.2-2.4-7.5-7.7-7.5H240v12.2h4.5c1.6,0,2.5,0.8,2.5,2.5V80h14.3V53.6c0-2.7,0.2-5.2,0.9-7.4
			c2.1-7,8-11.9,15.5-11.9c7.2,0,9.1,4.7,9.1,11.7v26.4c0,5.4,2.3,7.7,7.5,7.7H308V67.9h-4.5C301.9,67.9,301,67,301,65.5z M328,81
			h12V68h-12V81z M382.5,67.9c-1.6,0-2.5-0.9-2.5-2.5V30.2c0-5.3-2.2-7.7-7.5-7.7H359v12.2h4.5c1.6,0,2.5,0.8,2.5,2.5v35.2
			c0,5.4,2.2,7.7,7.5,7.7H387V67.9H382.5z M378.9,0h-12.3v13.2h12.3V0z"/>
	</g>
</g>
<g id="Forme_2">
	<g>
		<path fill="#F3F3F3" d="M470.8,39.8l-1.5-0.5c0.1-0.1,0.2-0.2,0.4-0.3L421,23.9c0,0,0.1,0.3,0.2,0.7l-0.6-0.2
			C414,30.1,410,38.5,410,48.1C410,66,423.3,80,440.9,80s30.9-14,30.9-31.9C471.8,45.2,471.5,42.4,470.8,39.8z M440.9,69.5
			c-10.8,0-19.5-9.3-19.5-21.4c0-4.7,1.4-9,3.9-12.4c5.1,9.6,15.4,20.1,34.9,9.6c0.1,0.9,0.2,1.9,0.2,2.8
			C460.4,60.3,451.7,69.5,440.9,69.5z"/>
	</g>
</g>
</svg>
